<svg xmlns="http://www.w3.org/2000/svg" viewBox="0 0 1000 1000" width="32" height="32">
  <rect width="1000" height="1000" rx="100" fill="#171717"/>
  <path fill="#ffffff" fill-rule="evenodd" clip-rule="evenodd" d="M786.9,356.4h-41v-41h-164v41h-41v41h-41l-0.2-0.1v0v-40.9v-40.9h40.9v-40.9h-40.9v-81.9h-40.9v40.9h-40.9v40.9H294.9v-40.9H254v-40.9h-40.9v81.9h-40.9v40.9h40.9v40.9h-40.9v40.9h40.9v0v40.9H254v40.9h81.9h0l0,0.2v41h-41v82h82v-41h41v41h123v-41h164v41h41v123h-41v41h-82v41h123v-41h41v-41h41v-328h-41V356.4z M335.9,356.3L335.9,356.3L335.9,356.3h-40.9v-40.9h40.9h0V356.3z M417.8,356.3h-40.9v-40.9h40.9V356.3z"/>
</svg>
